<mxfile host="app.diagrams.net" modified="2020-11-11T09:21:05.783Z" agent="5.0 (Windows NT 10.0; Win64; x64) AppleWebKit/537.36 (KHTML, like Gecko) Chrome/85.0.4183.121 Safari/537.36" etag="5XoDOH4RNhW_bELIRK7E" version="13.7.3" type="github">
  <diagram id="mRixWI7gZwNW45hCfdLx" name="第 1 页">
    <mxGraphModel dx="868" dy="449" grid="1" gridSize="10" guides="1" tooltips="1" connect="1" arrows="1" fold="1" page="1" pageScale="1" pageWidth="827" pageHeight="1169" math="0" shadow="0">
      <root>
        <mxCell id="0" />
        <mxCell id="1" parent="0" />
        <mxCell id="QJG8x-0lvZNc2zrjyoE3-11" style="rounded=0;orthogonalLoop=1;jettySize=auto;html=1;entryX=0.667;entryY=0.033;entryDx=0;entryDy=0;entryPerimeter=0;" edge="1" parent="1" source="QJG8x-0lvZNc2zrjyoE3-8" target="QJG8x-0lvZNc2zrjyoE3-10">
          <mxGeometry relative="1" as="geometry" />
        </mxCell>
        <mxCell id="QJG8x-0lvZNc2zrjyoE3-13" value="a" style="edgeLabel;html=1;align=center;verticalAlign=middle;resizable=0;points=[];fontSize=14;" vertex="1" connectable="0" parent="QJG8x-0lvZNc2zrjyoE3-11">
          <mxGeometry x="-0.3952" y="-2" relative="1" as="geometry">
            <mxPoint x="-5.59" y="5.1" as="offset" />
          </mxGeometry>
        </mxCell>
        <mxCell id="QJG8x-0lvZNc2zrjyoE3-35" style="edgeStyle=none;rounded=0;orthogonalLoop=1;jettySize=auto;html=1;fontSize=13;" edge="1" parent="1" source="QJG8x-0lvZNc2zrjyoE3-8" target="QJG8x-0lvZNc2zrjyoE3-34">
          <mxGeometry relative="1" as="geometry" />
        </mxCell>
        <mxCell id="QJG8x-0lvZNc2zrjyoE3-40" value="i" style="edgeLabel;html=1;align=center;verticalAlign=middle;resizable=0;points=[];fontSize=14;" vertex="1" connectable="0" parent="QJG8x-0lvZNc2zrjyoE3-35">
          <mxGeometry x="-0.5232" relative="1" as="geometry">
            <mxPoint x="6" y="6" as="offset" />
          </mxGeometry>
        </mxCell>
        <mxCell id="QJG8x-0lvZNc2zrjyoE3-8" value="" style="ellipse;whiteSpace=wrap;html=1;aspect=fixed;" vertex="1" parent="1">
          <mxGeometry x="320" y="50" width="60" height="60" as="geometry" />
        </mxCell>
        <mxCell id="QJG8x-0lvZNc2zrjyoE3-14" style="edgeStyle=none;rounded=0;orthogonalLoop=1;jettySize=auto;html=1;" edge="1" parent="1" source="QJG8x-0lvZNc2zrjyoE3-10" target="QJG8x-0lvZNc2zrjyoE3-12">
          <mxGeometry relative="1" as="geometry">
            <Array as="points">
              <mxPoint x="260" y="210" />
            </Array>
          </mxGeometry>
        </mxCell>
        <mxCell id="QJG8x-0lvZNc2zrjyoE3-15" value="p" style="edgeLabel;html=1;align=center;verticalAlign=middle;resizable=0;points=[];fontSize=14;" vertex="1" connectable="0" parent="QJG8x-0lvZNc2zrjyoE3-14">
          <mxGeometry x="-0.1778" y="-1" relative="1" as="geometry">
            <mxPoint as="offset" />
          </mxGeometry>
        </mxCell>
        <mxCell id="QJG8x-0lvZNc2zrjyoE3-29" style="edgeStyle=none;rounded=0;orthogonalLoop=1;jettySize=auto;html=1;" edge="1" parent="1" source="QJG8x-0lvZNc2zrjyoE3-10" target="QJG8x-0lvZNc2zrjyoE3-28">
          <mxGeometry relative="1" as="geometry" />
        </mxCell>
        <mxCell id="QJG8x-0lvZNc2zrjyoE3-30" value="n" style="edgeLabel;html=1;align=center;verticalAlign=middle;resizable=0;points=[];fontSize=14;" vertex="1" connectable="0" parent="QJG8x-0lvZNc2zrjyoE3-29">
          <mxGeometry x="-0.1665" y="2" relative="1" as="geometry">
            <mxPoint x="-1" as="offset" />
          </mxGeometry>
        </mxCell>
        <mxCell id="QJG8x-0lvZNc2zrjyoE3-10" value="a" style="ellipse;whiteSpace=wrap;html=1;aspect=fixed;" vertex="1" parent="1">
          <mxGeometry x="260" y="140" width="60" height="60" as="geometry" />
        </mxCell>
        <mxCell id="QJG8x-0lvZNc2zrjyoE3-17" style="edgeStyle=none;rounded=0;orthogonalLoop=1;jettySize=auto;html=1;" edge="1" parent="1" source="QJG8x-0lvZNc2zrjyoE3-12" target="QJG8x-0lvZNc2zrjyoE3-16">
          <mxGeometry relative="1" as="geometry" />
        </mxCell>
        <mxCell id="QJG8x-0lvZNc2zrjyoE3-18" value="p" style="edgeLabel;html=1;align=center;verticalAlign=middle;resizable=0;points=[];fontSize=14;" vertex="1" connectable="0" parent="QJG8x-0lvZNc2zrjyoE3-17">
          <mxGeometry x="-0.4772" y="1" relative="1" as="geometry">
            <mxPoint x="-6.54" y="3.4000000000000004" as="offset" />
          </mxGeometry>
        </mxCell>
        <mxCell id="QJG8x-0lvZNc2zrjyoE3-12" value="ap" style="ellipse;whiteSpace=wrap;html=1;aspect=fixed;" vertex="1" parent="1">
          <mxGeometry x="200" y="220" width="60" height="60" as="geometry" />
        </mxCell>
        <mxCell id="QJG8x-0lvZNc2zrjyoE3-20" style="edgeStyle=none;rounded=0;orthogonalLoop=1;jettySize=auto;html=1;entryX=1;entryY=0;entryDx=0;entryDy=0;" edge="1" parent="1" source="QJG8x-0lvZNc2zrjyoE3-16" target="QJG8x-0lvZNc2zrjyoE3-19">
          <mxGeometry relative="1" as="geometry" />
        </mxCell>
        <mxCell id="QJG8x-0lvZNc2zrjyoE3-21" value="l" style="edgeLabel;html=1;align=center;verticalAlign=middle;resizable=0;points=[];fontSize=14;" vertex="1" connectable="0" parent="QJG8x-0lvZNc2zrjyoE3-20">
          <mxGeometry x="0.2631" y="-2" relative="1" as="geometry">
            <mxPoint x="6" y="-9" as="offset" />
          </mxGeometry>
        </mxCell>
        <mxCell id="QJG8x-0lvZNc2zrjyoE3-16" value="app" style="ellipse;whiteSpace=wrap;html=1;aspect=fixed;" vertex="1" parent="1">
          <mxGeometry x="140" y="300" width="60" height="60" as="geometry" />
        </mxCell>
        <mxCell id="QJG8x-0lvZNc2zrjyoE3-23" style="edgeStyle=none;rounded=0;orthogonalLoop=1;jettySize=auto;html=1;" edge="1" parent="1" source="QJG8x-0lvZNc2zrjyoE3-19" target="QJG8x-0lvZNc2zrjyoE3-22">
          <mxGeometry relative="1" as="geometry" />
        </mxCell>
        <mxCell id="QJG8x-0lvZNc2zrjyoE3-24" value="y" style="edgeLabel;html=1;align=center;verticalAlign=middle;resizable=0;points=[];fontSize=14;" vertex="1" connectable="0" parent="QJG8x-0lvZNc2zrjyoE3-23">
          <mxGeometry x="-0.3733" y="1" relative="1" as="geometry">
            <mxPoint x="-4" y="3" as="offset" />
          </mxGeometry>
        </mxCell>
        <mxCell id="QJG8x-0lvZNc2zrjyoE3-26" style="edgeStyle=none;rounded=0;orthogonalLoop=1;jettySize=auto;html=1;entryX=0.317;entryY=0.05;entryDx=0;entryDy=0;entryPerimeter=0;" edge="1" parent="1" source="QJG8x-0lvZNc2zrjyoE3-19" target="QJG8x-0lvZNc2zrjyoE3-25">
          <mxGeometry relative="1" as="geometry" />
        </mxCell>
        <mxCell id="QJG8x-0lvZNc2zrjyoE3-27" value="e" style="edgeLabel;html=1;align=center;verticalAlign=middle;resizable=0;points=[];fontSize=14;" vertex="1" connectable="0" parent="QJG8x-0lvZNc2zrjyoE3-26">
          <mxGeometry x="-0.3762" y="1" relative="1" as="geometry">
            <mxPoint as="offset" />
          </mxGeometry>
        </mxCell>
        <mxCell id="QJG8x-0lvZNc2zrjyoE3-19" value="appl" style="ellipse;whiteSpace=wrap;html=1;aspect=fixed;" vertex="1" parent="1">
          <mxGeometry x="80" y="380" width="60" height="60" as="geometry" />
        </mxCell>
        <mxCell id="QJG8x-0lvZNc2zrjyoE3-22" value="apply" style="ellipse;whiteSpace=wrap;html=1;aspect=fixed;" vertex="1" parent="1">
          <mxGeometry x="20" y="470" width="60" height="60" as="geometry" />
        </mxCell>
        <mxCell id="QJG8x-0lvZNc2zrjyoE3-25" value="apple" style="ellipse;whiteSpace=wrap;html=1;aspect=fixed;" vertex="1" parent="1">
          <mxGeometry x="140" y="470" width="60" height="60" as="geometry" />
        </mxCell>
        <mxCell id="QJG8x-0lvZNc2zrjyoE3-32" style="edgeStyle=none;rounded=0;orthogonalLoop=1;jettySize=auto;html=1;" edge="1" parent="1" source="QJG8x-0lvZNc2zrjyoE3-28" target="QJG8x-0lvZNc2zrjyoE3-31">
          <mxGeometry relative="1" as="geometry" />
        </mxCell>
        <mxCell id="QJG8x-0lvZNc2zrjyoE3-33" value="d" style="edgeLabel;html=1;align=center;verticalAlign=middle;resizable=0;points=[];fontSize=14;" vertex="1" connectable="0" parent="QJG8x-0lvZNc2zrjyoE3-32">
          <mxGeometry x="-0.2939" relative="1" as="geometry">
            <mxPoint x="-3" as="offset" />
          </mxGeometry>
        </mxCell>
        <mxCell id="QJG8x-0lvZNc2zrjyoE3-28" value="an" style="ellipse;whiteSpace=wrap;html=1;aspect=fixed;" vertex="1" parent="1">
          <mxGeometry x="320" y="220" width="60" height="60" as="geometry" />
        </mxCell>
        <mxCell id="QJG8x-0lvZNc2zrjyoE3-31" value="and" style="ellipse;whiteSpace=wrap;html=1;aspect=fixed;" vertex="1" parent="1">
          <mxGeometry x="260" y="300" width="60" height="60" as="geometry" />
        </mxCell>
        <mxCell id="QJG8x-0lvZNc2zrjyoE3-37" value="t" style="edgeStyle=none;rounded=0;orthogonalLoop=1;jettySize=auto;html=1;entryX=0;entryY=0;entryDx=0;entryDy=0;fontSize=13;" edge="1" parent="1" source="QJG8x-0lvZNc2zrjyoE3-34" target="QJG8x-0lvZNc2zrjyoE3-36">
          <mxGeometry relative="1" as="geometry" />
        </mxCell>
        <mxCell id="QJG8x-0lvZNc2zrjyoE3-34" value="i" style="ellipse;whiteSpace=wrap;html=1;aspect=fixed;" vertex="1" parent="1">
          <mxGeometry x="400" y="140" width="60" height="60" as="geometry" />
        </mxCell>
        <mxCell id="QJG8x-0lvZNc2zrjyoE3-36" value="it" style="ellipse;whiteSpace=wrap;html=1;aspect=fixed;" vertex="1" parent="1">
          <mxGeometry x="470" y="220" width="60" height="60" as="geometry" />
        </mxCell>
        <mxCell id="QJG8x-0lvZNc2zrjyoE3-42" value="学英语会编程&lt;br&gt;ITDragon博客" style="text;html=1;strokeColor=none;fillColor=none;align=center;verticalAlign=middle;whiteSpace=wrap;rounded=0;fontSize=14;" vertex="1" parent="1">
          <mxGeometry x="380" y="330" width="100" height="20" as="geometry" />
        </mxCell>
      </root>
    </mxGraphModel>
  </diagram>
</mxfile>
